<svg id="aeedzlogo" xmlns="http://www.w3.org/2000/svg" width="29.405" height="41.57" viewBox="0 0 29.405 41.57">
  <path id="Path_3" data-name="Path 3" d="M123,61.011l.1,7.39L106.037,91.442a2.282,2.282,0,0,1-3.117.505l-.233-.161a2.118,2.118,0,0,1-.521-3.017l19.573-26.554A3.991,3.991,0,0,1,123,61.011Z" transform="translate(-101.749 -60.592)" fill="#fff"/>
  <path id="Path_4" data-name="Path 4" d="M306.733,60.172h0V95.949a2.483,2.483,0,0,1-2.523,2.441,2.559,2.559,0,0,1-1.784-.715,2.394,2.394,0,0,1-.738-1.726V57.257a3.43,3.43,0,0,1,1.684-.437,3.309,3.309,0,0,1,3.361,3.253C306.735,60.106,306.735,60.14,306.733,60.172Z" transform="translate(-280.475 -56.82)" fill="#fff"/>
  <rect id="Rectangle_6" data-name="Rectangle 6" width="1.947" height="31.166" rx="0.974" transform="translate(27.458 5.672)" fill="#fff"/>
</svg>
